PathFileType	4	(X/Y/Z)	 s05c0101.trc
DataRate	CameraRate	NumFrames	NumMarkers	Units	OrigDataRate	OrigDataStartFrame	OrigNumFrames
200	200	4	50	mm	200	1001	2000
Frame#	Time	racr			lacr			c7			jug			rlel			rdr			llel			ldr			s2			lic			ric			lasi			rasi			rpsi			lpsi			rgt			lgt			rth1			rth2			rth3			rth4			rlfc			rmfc			rsh1			rsh2			rsh3			rsh4			rlmal			rmmal			rcal			rtoe			rmt5			lth1			lth2			lth4			lth3			llfc			lmfc			lsh1			lsh2			lsh3			lsh4			llmal			lmmal			lcal			ltoe			lmt5			SBIKE			LBIKE			RBIKE			
		X1	Y1	Z1	X2	Y2	Z2	X3	Y3	Z3	X4	Y4	Z4	X5	Y5	Z5	X6	Y6	Z6	X7	Y7	Z7	X8	Y8	Z8	X9	Y9	Z9	X10	Y10	Z10	X11	Y11	Z11	X12	Y12	Z12	X13	Y13	Z13	X14	Y14	Z14	X15	Y15	Z15	X16	Y16	Z16	X17	Y17	Z17	X18	Y18	Z18	X19	Y19	Z19	X20	Y20	Z20	X21	Y21	Z21	X22	Y22	Z22	X23	Y23	Z23	X24	Y24	Z24	X25	Y25	Z25	X26	Y26	Z26	X27	Y27	Z27	X28	Y28	Z28	X29	Y29	Z29	X30	Y30	Z30	X31	Y31	Z31	X32	Y32	Z32	X33	Y33	Z33	X34	Y34	Z34	X35	Y35	Z35	X36	Y36	Z36	X37	Y37	Z37	X38	Y38	Z38	X39	Y39	Z39	X40	Y40	Z40	X41	Y41	Z41	X42	Y42	Z42	X43	Y43	Z43	X44	Y44	Z44	X45	Y45	Z45	X46	Y46	Z46	X47	Y47	Z47	X48	Y48	Z48	X49	Y49	Z49	X50	Y50	Z50	
1001	5.0050	447.505908	1346.908242	-159.173614	442.241543	1333.078902	-408.958259	406.605659	1415.750685	-292.205693	376.455863	1256.044699	-274.833483	499.924575	1110.770898	-21.485930	689.435922	940.166050	-75.596538	480.902969	1079.852770	-546.514975	690.452027	925.805611	-463.298957	-122.855464	1165.616973	-265.019677	14.650810	1187.114723	-409.531647	14.963332	1206.724525	-122.737175	67.585278	1139.104381	-376.669008	67.593693	1150.027888	-148.348011	-94.557139	1221.261504	-227.683912	-94.991778	1218.472026	-313.424154	-8.197968	1065.445801	-96.437472	-31.159956	1080.713198	-433.985532	86.768163	982.084551	-83.509126	163.693277	937.611013	-83.804397	206.565314	861.041793	-92.639636	188.828843	963.851251	-94.510432	313.894863	756.252964	-118.950025	298.781165	750.416104	-227.032353	271.164724	653.455174	-91.977162	283.030500	566.182971	-102.527321	253.228619	485.861280	-104.899366	312.539706	565.390406	-128.526251	239.038270	352.472380	-113.843873	252.044153	372.355776	-195.174620	171.637388	315.538718	-159.613001	468.256424	310.485864	-143.940424	365.724767	282.179008	-82.933596	86.034003	997.244346	-445.558308	169.553878	976.350402	-441.175244	187.584572	1005.623431	-425.500006	233.694033	912.431491	-443.013728	336.097349	806.057669	-408.434189	313.505451	791.587630	-302.500606	242.583467	723.628545	-439.327925	196.251259	650.651995	-427.115187	118.368145	608.049354	-430.801196	217.908155	630.020489	-402.937516	35.763813	526.478307	-430.033232	67.492814	524.568712	-351.903777	-33.340512	539.166831	-386.435681	152.719065	310.164818	-397.270047	59.960184	372.871952	-457.489228	-260.156095	899.008859	-280.427708	-43.609258	84.713619	-475.223666	-51.835836	80.026344	-77.674190	
1002	5.0100	449.125636	1347.883100	-159.369628	441.311603	1333.188484	-410.226547	406.898239	1416.478319	-293.536507	376.615394	1256.765564	-275.484376	501.734616	1111.986793	-22.296700	690.147885	939.846844	-75.875476	479.883880	1078.983851	-545.887797	689.627337	926.253530	-462.106784	-122.096913	1166.132616	-261.692743	13.798824	1188.790778	-407.028746	16.736696	1206.363585	-120.043231	67.384901	1141.117855	-374.712413	69.024069	1149.374901	-146.364898	-93.533790	1221.404195	-223.428426	-95.288734	1219.088734	-309.541684	-7.627249	1063.733340	-94.836625	-30.987450	1083.560128	-432.100398	85.897220	978.746918	-81.883257	161.654042	931.766245	-82.932186	202.104365	854.249156	-91.636327	187.371166	957.621659	-93.051272	306.878786	746.806513	-117.761022	291.380781	740.915415	-225.521015	264.560580	643.873075	-90.502748	277.535840	556.802623	-101.405509	248.698565	476.013827	-104.227638	307.015718	556.497034	-127.334181	236.650456	342.723176	-113.803030	249.507418	362.570156	-194.989503	169.147529	306.284876	-159.616698	465.871759	299.070696	-144.125452	363.036892	271.455021	-83.074359	86.887962	1001.842460	-444.937362	170.779205	982.809834	-440.907056	188.247442	1012.295507	-424.770789	236.359043	920.349753	-443.607468	341.056093	815.439233	-409.802265	321.551597	802.402740	-303.449250	247.184782	733.401031	-440.014556	200.421990	660.630600	-427.721276	122.318510	618.554064	-431.110354	222.161143	639.782757	-403.735611	39.108052	537.266316	-430.013041	71.919433	535.648117	-351.907614	-30.073769	549.766816	-385.881461	155.742597	320.745581	-397.165692	63.107504	383.382201	-457.155586	-260.376458	899.078327	-279.914160	-43.604542	84.784530	-475.209466	-51.806705	80.032932	-77.663501	
1003	5.0150	450.451252	1348.922488	-160.303904	440.311075	1333.328375	-411.206539	407.210472	1417.169459	-294.813397	376.709962	1257.598470	-276.195174	503.601069	1113.171174	-23.214747	690.982212	939.517382	-76.218371	478.941271	1078.214912	-545.494612	689.697622	926.405647	-461.882933	-121.217038	1166.658362	-258.251353	12.885504	1190.625248	-404.548491	19.066918	1206.051043	-117.402036	67.127767	1143.142138	-372.811682	70.603652	1148.874628	-144.385592	-93.142056	1222.281789	-218.815144	-94.437200	1220.495550	-306.133643	-6.978275	1062.129836	-93.301704	-30.723752	1086.633026	-430.265544	84.945906	975.503652	-80.314631	159.272330	927.280325	-81.673832	197.380662	847.556962	-90.384099	185.785213	951.414294	-91.453358	299.092167	737.617918	-116.726689	283.434214	731.733036	-224.156801	257.937506	634.663059	-89.248966	271.604187	547.779598	-100.337121	243.592585	466.588617	-103.305963	301.020400	547.698608	-125.983260	233.648673	333.333954	-113.519083	246.543417	352.969910	-194.783356	166.854759	296.532991	-160.335093	462.730355	287.808860	-144.295050	359.768077	260.964045	-83.208819	87.712046	1006.908101	-444.163162	172.013610	989.649650	-440.560627	188.838155	1019.316266	-424.121366	238.695691	928.455658	-443.493917	345.802990	825.252264	-411.255024	324.268150	809.700829	-305.109493	251.855476	743.366592	-440.791775	204.929724	670.801175	-428.521031	126.502998	629.117734	-431.467301	226.618036	649.796806	-404.648451	42.802708	547.738308	-429.983789	74.809975	546.109895	-352.009346	-26.264333	560.516783	-385.910951	159.514108	331.363802	-397.035163	66.855040	393.968954	-456.993457	-260.323148	898.912655	-278.684716	-43.586667	84.838739	-475.174916	-51.801759	80.067566	-77.641098	
1004	5.0200	451.536969	1349.717556	-161.467579	439.478585	1333.555149	-412.213741	407.464717	1417.975260	-296.025719	376.764299	1258.397277	-276.813596	505.738617	1114.350344	-24.194965	691.848658	939.162690	-76.638258	478.038448	1077.630193	-544.968121	690.256658	926.921251	-461.687291	-120.226797	1167.383044	-254.372570	11.841764	1192.388522	-401.881444	21.522351	1205.713580	-115.312157	66.756641	1145.407708	-370.889785	72.263572	1148.442168	-142.570089	-91.731633	1222.607775	-215.109008	-94.048327	1221.556589	-302.102833	-6.266312	1060.686158	-91.714048	-30.501595	1089.885659	-428.430886	83.930870	972.455405	-78.782817	156.583187	921.397218	-79.977488	192.297361	841.050012	-89.118905	183.903978	945.157314	-90.108477	291.700104	728.564594	-116.086356	274.996841	722.812251	-223.048002	251.035442	625.734835	-87.890043	265.302792	539.007416	-99.219631	237.889628	457.646996	-102.272348	294.791469	539.282265	-124.967855	230.072307	324.112060	-113.225603	242.783360	343.891769	-194.372308	163.140298	288.132310	-159.957303	459.041689	276.653686	-144.503028	355.869179	250.762910	-83.280072	88.532890	1012.323060	-443.274650	173.202966	996.829165	-440.142424	189.429838	1026.710510	-423.360795	241.142492	937.079595	-443.811281	350.364252	835.321628	-412.783985	330.688326	819.353212	-306.105566	256.553375	753.522366	-441.604410	209.383726	681.065788	-429.174842	130.836186	639.663178	-431.830386	231.233106	660.036199	-405.476653	46.784593	557.988348	-429.887156	78.700075	556.426605	-351.990903	-22.172211	570.682621	-385.925571	164.041941	342.055172	-396.863098	71.175334	404.362860	-456.762747	-260.402896	899.035480	-278.540297	-43.567361	84.923646	-475.156119	-51.765771	80.057478	-77.606009	
